<mxfile host="Electron" modified="2024-05-19T18:53:09.460Z" agent="Mozilla/5.0 (Windows NT 10.0; Win64; x64) AppleWebKit/537.36 (KHTML, like Gecko) draw.io/22.1.2 Chrome/114.0.5735.289 Electron/25.9.4 Safari/537.36" etag="n5AQs6lpT6te0pLgil7H" version="22.1.2" type="device">
  <diagram name="Page-1" id="b0MQotQdnOeZVrTKw8wq">
    <mxGraphModel dx="1034" dy="612" grid="1" gridSize="10" guides="1" tooltips="1" connect="1" arrows="1" fold="1" page="1" pageScale="1" pageWidth="850" pageHeight="1100" math="0" shadow="0">
      <root>
        <mxCell id="0" />
        <mxCell id="1" parent="0" />
        <mxCell id="K9ri2JtYzb2bS4vW_sXa-1" value="Pembayaran" style="swimlane;childLayout=stackLayout;resizeParent=1;resizeParentMax=0;startSize=20;html=1;" parent="1" vertex="1">
          <mxGeometry x="110.00000000000045" y="50" width="350" height="470" as="geometry" />
        </mxCell>
        <mxCell id="K9ri2JtYzb2bS4vW_sXa-2" value="user" style="swimlane;startSize=20;html=1;" parent="K9ri2JtYzb2bS4vW_sXa-1" vertex="1">
          <mxGeometry y="20" width="210" height="450" as="geometry" />
        </mxCell>
        <mxCell id="K9ri2JtYzb2bS4vW_sXa-44" style="edgeStyle=orthogonalEdgeStyle;rounded=0;orthogonalLoop=1;jettySize=auto;html=1;exitX=0.5;exitY=1;exitDx=0;exitDy=0;entryX=0.5;entryY=0;entryDx=0;entryDy=0;" parent="K9ri2JtYzb2bS4vW_sXa-2" source="K9ri2JtYzb2bS4vW_sXa-3" target="K9ri2JtYzb2bS4vW_sXa-43" edge="1">
          <mxGeometry relative="1" as="geometry" />
        </mxCell>
        <mxCell id="K9ri2JtYzb2bS4vW_sXa-3" value="" style="ellipse;html=1;shape=startState;strokeColor=#000000;fillColor=#000000;" parent="K9ri2JtYzb2bS4vW_sXa-2" vertex="1">
          <mxGeometry x="89.99999999999955" y="40" width="30" height="30" as="geometry" />
        </mxCell>
        <mxCell id="K9ri2JtYzb2bS4vW_sXa-8" value="" style="ellipse;html=1;shape=endState;fillColor=#000000;strokeColor=#000000;" parent="K9ri2JtYzb2bS4vW_sXa-2" vertex="1">
          <mxGeometry x="87.49999999999955" y="400" width="30" height="30" as="geometry" />
        </mxCell>
        <mxCell id="K9ri2JtYzb2bS4vW_sXa-43" value="memilih bank" style="rounded=0;whiteSpace=wrap;html=1;" parent="K9ri2JtYzb2bS4vW_sXa-2" vertex="1">
          <mxGeometry x="50" y="100" width="110" height="30" as="geometry" />
        </mxCell>
        <mxCell id="y_qw5PlPL1ya8iWosK9t-7" style="edgeStyle=orthogonalEdgeStyle;rounded=0;orthogonalLoop=1;jettySize=auto;html=1;exitX=0.5;exitY=1;exitDx=0;exitDy=0;entryX=0.5;entryY=0;entryDx=0;entryDy=0;" edge="1" parent="K9ri2JtYzb2bS4vW_sXa-2" source="K9ri2JtYzb2bS4vW_sXa-66" target="y_qw5PlPL1ya8iWosK9t-2">
          <mxGeometry relative="1" as="geometry" />
        </mxCell>
        <mxCell id="K9ri2JtYzb2bS4vW_sXa-66" value="invoice pembayaran page" style="rounded=0;whiteSpace=wrap;html=1;" parent="K9ri2JtYzb2bS4vW_sXa-2" vertex="1">
          <mxGeometry x="50" y="220" width="105" height="30" as="geometry" />
        </mxCell>
        <mxCell id="y_qw5PlPL1ya8iWosK9t-2" value="melakukan pembayaran" style="rounded=0;whiteSpace=wrap;html=1;" vertex="1" parent="K9ri2JtYzb2bS4vW_sXa-2">
          <mxGeometry x="52.5" y="280" width="105" height="30" as="geometry" />
        </mxCell>
        <mxCell id="y_qw5PlPL1ya8iWosK9t-12" style="edgeStyle=orthogonalEdgeStyle;rounded=0;orthogonalLoop=1;jettySize=auto;html=1;exitX=0.5;exitY=1;exitDx=0;exitDy=0;entryX=0.5;entryY=0;entryDx=0;entryDy=0;" edge="1" parent="K9ri2JtYzb2bS4vW_sXa-2" source="y_qw5PlPL1ya8iWosK9t-11" target="K9ri2JtYzb2bS4vW_sXa-8">
          <mxGeometry relative="1" as="geometry" />
        </mxCell>
        <mxCell id="y_qw5PlPL1ya8iWosK9t-11" value="update invoice status pembayaran" style="rounded=0;whiteSpace=wrap;html=1;" vertex="1" parent="K9ri2JtYzb2bS4vW_sXa-2">
          <mxGeometry x="52.5" y="340" width="109.5" height="30" as="geometry" />
        </mxCell>
        <mxCell id="K9ri2JtYzb2bS4vW_sXa-11" value="sistem" style="swimlane;startSize=20;html=1;" parent="K9ri2JtYzb2bS4vW_sXa-1" vertex="1">
          <mxGeometry x="210" y="20" width="140" height="450" as="geometry" />
        </mxCell>
        <mxCell id="K9ri2JtYzb2bS4vW_sXa-102" style="edgeStyle=orthogonalEdgeStyle;rounded=0;orthogonalLoop=1;jettySize=auto;html=1;exitX=0.5;exitY=1;exitDx=0;exitDy=0;entryX=0.5;entryY=0;entryDx=0;entryDy=0;" parent="K9ri2JtYzb2bS4vW_sXa-11" target="K9ri2JtYzb2bS4vW_sXa-100" edge="1">
          <mxGeometry relative="1" as="geometry">
            <mxPoint x="68.00000000000011" y="310" as="sourcePoint" />
          </mxGeometry>
        </mxCell>
        <mxCell id="y_qw5PlPL1ya8iWosK9t-4" style="edgeStyle=orthogonalEdgeStyle;rounded=0;orthogonalLoop=1;jettySize=auto;html=1;exitX=0.5;exitY=1;exitDx=0;exitDy=0;entryX=0.5;entryY=0;entryDx=0;entryDy=0;" edge="1" parent="K9ri2JtYzb2bS4vW_sXa-11" source="K9ri2JtYzb2bS4vW_sXa-59" target="y_qw5PlPL1ya8iWosK9t-3">
          <mxGeometry relative="1" as="geometry" />
        </mxCell>
        <mxCell id="K9ri2JtYzb2bS4vW_sXa-59" value="menyimpan data pembayaran" style="rounded=0;whiteSpace=wrap;html=1;" parent="K9ri2JtYzb2bS4vW_sXa-11" vertex="1">
          <mxGeometry x="13.379999999999999" y="100" width="109.25" height="30" as="geometry" />
        </mxCell>
        <mxCell id="K9ri2JtYzb2bS4vW_sXa-88" value="ambil data pembayaran" style="rounded=0;whiteSpace=wrap;html=1;" parent="K9ri2JtYzb2bS4vW_sXa-11" vertex="1">
          <mxGeometry x="15.5" y="220" width="109.5" height="30" as="geometry" />
        </mxCell>
        <mxCell id="K9ri2JtYzb2bS4vW_sXa-105" style="edgeStyle=orthogonalEdgeStyle;rounded=0;orthogonalLoop=1;jettySize=auto;html=1;exitX=0.5;exitY=1;exitDx=0;exitDy=0;entryX=0.5;entryY=0;entryDx=0;entryDy=0;" parent="K9ri2JtYzb2bS4vW_sXa-11" target="K9ri2JtYzb2bS4vW_sXa-56" edge="1">
          <mxGeometry relative="1" as="geometry">
            <mxPoint x="67.50000000000011" y="370" as="sourcePoint" />
          </mxGeometry>
        </mxCell>
        <mxCell id="y_qw5PlPL1ya8iWosK9t-5" style="edgeStyle=orthogonalEdgeStyle;rounded=0;orthogonalLoop=1;jettySize=auto;html=1;exitX=0.5;exitY=1;exitDx=0;exitDy=0;entryX=0.5;entryY=0;entryDx=0;entryDy=0;" edge="1" parent="K9ri2JtYzb2bS4vW_sXa-11" source="y_qw5PlPL1ya8iWosK9t-3" target="K9ri2JtYzb2bS4vW_sXa-88">
          <mxGeometry relative="1" as="geometry" />
        </mxCell>
        <mxCell id="y_qw5PlPL1ya8iWosK9t-3" value="membuat request api midtrans" style="rounded=0;whiteSpace=wrap;html=1;" vertex="1" parent="K9ri2JtYzb2bS4vW_sXa-11">
          <mxGeometry x="10" y="150" width="120" height="50" as="geometry" />
        </mxCell>
        <mxCell id="y_qw5PlPL1ya8iWosK9t-8" value="update status pembayaran" style="rounded=0;whiteSpace=wrap;html=1;" vertex="1" parent="K9ri2JtYzb2bS4vW_sXa-11">
          <mxGeometry x="20.5" y="280" width="109.5" height="30" as="geometry" />
        </mxCell>
        <mxCell id="K9ri2JtYzb2bS4vW_sXa-60" style="edgeStyle=orthogonalEdgeStyle;rounded=0;orthogonalLoop=1;jettySize=auto;html=1;exitX=1;exitY=0.5;exitDx=0;exitDy=0;" parent="K9ri2JtYzb2bS4vW_sXa-1" source="K9ri2JtYzb2bS4vW_sXa-43" target="K9ri2JtYzb2bS4vW_sXa-59" edge="1">
          <mxGeometry relative="1" as="geometry" />
        </mxCell>
        <mxCell id="y_qw5PlPL1ya8iWosK9t-1" style="edgeStyle=orthogonalEdgeStyle;rounded=0;orthogonalLoop=1;jettySize=auto;html=1;exitX=0;exitY=0.5;exitDx=0;exitDy=0;entryX=1;entryY=0.5;entryDx=0;entryDy=0;" edge="1" parent="K9ri2JtYzb2bS4vW_sXa-1" source="K9ri2JtYzb2bS4vW_sXa-88" target="K9ri2JtYzb2bS4vW_sXa-66">
          <mxGeometry relative="1" as="geometry" />
        </mxCell>
        <mxCell id="y_qw5PlPL1ya8iWosK9t-9" style="edgeStyle=orthogonalEdgeStyle;rounded=0;orthogonalLoop=1;jettySize=auto;html=1;exitX=1;exitY=0.5;exitDx=0;exitDy=0;entryX=0;entryY=0.5;entryDx=0;entryDy=0;" edge="1" parent="K9ri2JtYzb2bS4vW_sXa-1" source="y_qw5PlPL1ya8iWosK9t-2" target="y_qw5PlPL1ya8iWosK9t-8">
          <mxGeometry relative="1" as="geometry" />
        </mxCell>
        <mxCell id="y_qw5PlPL1ya8iWosK9t-10" style="edgeStyle=orthogonalEdgeStyle;rounded=0;orthogonalLoop=1;jettySize=auto;html=1;exitX=0.5;exitY=1;exitDx=0;exitDy=0;entryX=1;entryY=0.5;entryDx=0;entryDy=0;" edge="1" parent="K9ri2JtYzb2bS4vW_sXa-1" source="y_qw5PlPL1ya8iWosK9t-8" target="y_qw5PlPL1ya8iWosK9t-11">
          <mxGeometry relative="1" as="geometry">
            <mxPoint x="285.2857142857139" y="370" as="targetPoint" />
          </mxGeometry>
        </mxCell>
      </root>
    </mxGraphModel>
  </diagram>
</mxfile>
